# xmcd
#
# Track frame offsets:
#	150
#	22977
#	32166
#	44721
#	53055
#	68738
#	79936
#	94314
#	108847
#	130007
#	142458
#	155656
#	171715
#
# Disc length: 2485 seconds
#
# Revision: 1
# Processed by: cddbd v1.5.1PL2 Copyright (c) Steve Scherf et al.
# Submitted via: audiograbber 1.82.02
#
DISCID=bd09b30d
DTITLE=Sealgschtrickt - In mir gruuvt´s
DYEAR=2005
DGENRE=Country
TTITLE0=Schau, Schau
TTITLE1=Ufklärt
TTITLE2=In mir gruuft´s
TTITLE3=Üser Bua
TTITLE4=Kindergarta
TTITLE5=Im Vater´s Stübele
TTITLE6=Dr Schweinehund
TTITLE7=Ländleblues
TTITLE8=A Liad für Di
TTITLE9=Warum
TTITLE10=Nochbur
TTITLE11=Vereinsmaeyier
TTITLE12=Ribl
EXTD=
EXTT0=
EXTT1=
EXTT2=
EXTT3=
EXTT4=
EXTT5=
EXTT6=
EXTT7=
EXTT8=
EXTT9=
EXTT10=
EXTT11=
EXTT12=
PLAYORDER=
